<svg xmlns="http://www.w3.org/2000/svg" xmlns:xlink="http://www.w3.org/1999/xlink" viewBox="0 0 55.57 53.4"><defs><style>.cls-1{fill:url(#linear-gradient);}.cls-2{fill:url(#linear-gradient-2);}.cls-3{fill:url(#linear-gradient-3);}.cls-4{fill:url(#linear-gradient-4);}.cls-5{fill:url(#linear-gradient-5);}.cls-6{fill:url(#linear-gradient-6);}.cls-7{fill:url(#linear-gradient-7);}.cls-8{fill:url(#linear-gradient-8);}.cls-9{fill:url(#linear-gradient-9);}.cls-10{fill:url(#linear-gradient-10);}.cls-11{fill:url(#linear-gradient-11);}.cls-12{fill:url(#linear-gradient-12);}.cls-13{fill:url(#linear-gradient-13);}.cls-14{fill:url(#linear-gradient-14);}.cls-15{fill:url(#linear-gradient-15);}</style><linearGradient id="linear-gradient" x1="31.72" y1="39.9" x2="-8.8" y2="38.96" gradientUnits="userSpaceOnUse"><stop offset="0" stop-color="#284d7e"/><stop offset="1" stop-color="#42aca1"/></linearGradient><linearGradient id="linear-gradient-2" x1="31.73" y1="39.48" x2="-8.79" y2="38.54" xlink:href="#linear-gradient"/><linearGradient id="linear-gradient-3" x1="41.26" y1="2.6" x2="43.57" y2="2.6" xlink:href="#linear-gradient"/><linearGradient id="linear-gradient-4" x1="19.69" y1="19.01" x2="35.15" y2="19.01" xlink:href="#linear-gradient"/><linearGradient id="linear-gradient-5" x1="3.79" y1="19.79" x2="54.44" y2="16.23" xlink:href="#linear-gradient"/><linearGradient id="linear-gradient-6" x1="3.62" y1="17.37" x2="54.27" y2="13.81" xlink:href="#linear-gradient"/><linearGradient id="linear-gradient-7" x1="9.83" y1="17.47" x2="9.84" y2="17.47" xlink:href="#linear-gradient"/><linearGradient id="linear-gradient-8" x1="9.85" y1="17.1" x2="9.97" y2="17.1" xlink:href="#linear-gradient"/><linearGradient id="linear-gradient-9" x1="10.02" y1="16.34" x2="10.17" y2="16.34" xlink:href="#linear-gradient"/><linearGradient id="linear-gradient-10" x1="9.83" y1="17.44" x2="9.85" y2="17.44" xlink:href="#linear-gradient"/><linearGradient id="linear-gradient-11" x1="9.9" y1="16.77" x2="10.07" y2="16.77" xlink:href="#linear-gradient"/><linearGradient id="linear-gradient-12" x1="10.07" y1="12.7" x2="19.69" y2="12.7" xlink:href="#linear-gradient"/><linearGradient id="linear-gradient-13" x1="25.46" y1="50.31" x2="4.46" y2="15.8" xlink:href="#linear-gradient"/><linearGradient id="linear-gradient-14" x1="10.17" y1="12.54" x2="29.66" y2="12.54" xlink:href="#linear-gradient"/><linearGradient id="linear-gradient-15" x1="44.71" y1="1.93" x2="32.9" y2="50.7" xlink:href="#linear-gradient"/></defs><title>Asset 12</title><g id="Layer_2" data-name="Layer 2"><g id="Layer_1-2" data-name="Layer 1"><path class="cls-1" d="M9,44.34a10,10,0,0,1-9-9.93H9v9A9.1,9.1,0,0,0,9,44.34Z"/><path class="cls-2" d="M35.88,34.41a10,10,0,0,1-10,10H20.42v-10Z"/><path class="cls-3" d="M43.57,3.63c-.2-.24-.42-.48-.64-.71a11.47,11.47,0,0,0-1.67-1.35,9.06,9.06,0,0,1,1.67,1.35A6.13,6.13,0,0,1,43.57,3.63Z"/><rect class="cls-4" x="19.69" y="18.99" width="15.46" height="0.04"/><path class="cls-5" d="M35.15,9V19H19.69V19a10,10,0,0,0-10,10V19c0-.25,0-.49,0-.73s0-.22,0-.33a1,1,0,0,1,0-.17,2.51,2.51,0,0,1,0-.27v0s0-.05,0-.07h0l.05-.22.06-.3s0,0,0-.05v0a.53.53,0,0,1,0-.12.2.2,0,0,1,0-.07l.15-.53a10,10,0,0,1,9.52-7h9c.3,0,.61-.05.92-.05Z"/><path class="cls-6" d="M55.57,19h-9V9.07A10,10,0,0,1,55.57,19Z"/><path class="cls-7" d="M9.84,17.46v0s0,0,0,0Z"/><path class="cls-8" d="M10,16.81s0,0,0,.05l-.06.3-.05.22c0-.1,0-.2.05-.3l0-.1a.15.15,0,0,1,0-.09A.24.24,0,0,1,10,16.81Z"/><path class="cls-9" d="M10.17,16.07,10,16.6c0-.08,0-.16.05-.23A2.64,2.64,0,0,1,10.17,16.07Z"/><path class="cls-10" d="M9.85,17.39s0,0,0,.07v0s0,0,0,0A.25.25,0,0,1,9.85,17.39Z"/><path class="cls-11" d="M10.07,16.37c0,.07,0,.15-.05.23a.2.2,0,0,0,0,.07.53.53,0,0,0,0,.12v0s0,0,0,.05l-.06.3v-.08l0-.1a.15.15,0,0,1,0-.09A4.37,4.37,0,0,1,10.07,16.37Z"/><path class="cls-12" d="M19.69,9v.05a10,10,0,0,0-9.52,7,2.64,2.64,0,0,0-.1.3c0-.15.08-.29.13-.43l0-.13c0-.12.08-.25.13-.37a9.36,9.36,0,0,1,.55-1.2c.16-.28.33-.55.5-.82h0c.19-.27.38-.53.58-.77h0l.12-.13a6.89,6.89,0,0,1,.52-.56c.19-.19.37-.36.57-.53a1.42,1.42,0,0,1,.13-.12h0c.24-.2.5-.39.76-.57h0a8.54,8.54,0,0,1,.82-.5,7.54,7.54,0,0,1,1.19-.55,2.92,2.92,0,0,1,.38-.14L17,9.38c.21-.06.42-.11.64-.15l.4-.08h.11l.27,0h.05a3.64,3.64,0,0,1,.45,0h0C19.2,9,19.45,9,19.69,9Z"/><path class="cls-13" d="M19.69,19V53.4a10,10,0,0,1-9.93-9.06,9.1,9.1,0,0,1,0-.91V29A10,10,0,0,1,19.69,19Z"/><path class="cls-14" d="M29.66,9c-.31,0-.62,0-.92.05h-9a10,10,0,0,0-9.52,7l0-.13,0-.13c0-.12.08-.25.13-.37a9.36,9.36,0,0,1,.55-1.2c.16-.28.33-.55.5-.82h0c.19-.27.38-.53.58-.77h0l.12-.13a6.89,6.89,0,0,1,.52-.56c.19-.19.37-.36.57-.53a1.42,1.42,0,0,1,.13-.12h0c.24-.2.5-.39.76-.57h0a8.54,8.54,0,0,1,.82-.5,7.54,7.54,0,0,1,1.19-.55,2.92,2.92,0,0,1,.38-.14L17,9.38c.21-.06.42-.11.64-.15l.4-.08h.11l.27,0h.05a3.64,3.64,0,0,1,.45,0h0c.23,0,.48,0,.72,0Z"/><path class="cls-15" d="M45.85,10V34.41c0,.24,0,.49,0,.72s0,.3,0,.46,0,.28-.06.42,0,.28-.07.42a11.72,11.72,0,0,1-.32,1.16c0,.13-.08.25-.13.38a10.81,10.81,0,0,1-.55,1.2c-.16.27-.33.55-.5.81h0c-.19.26-.38.52-.58.76h0a12.11,12.11,0,0,1-1.34,1.34h0c-.24.2-.5.39-.76.58h0c-.26.17-.54.34-.82.5a9.89,9.89,0,0,1-1.19.55l-.38.13a9.18,9.18,0,0,1-1.17.32l-.41.07-.42.06a3.57,3.57,0,0,1-.46,0c-.23,0-.48,0-.72,0h-10a10,10,0,0,0,10-10V0l3,.45a8.15,8.15,0,0,1,.91.34,8.65,8.65,0,0,1,.87.41l.63.37a11.47,11.47,0,0,1,1.67,1.35c.22.23.44.47.64.71s.2.25.3.37.19.26.28.39l.25.41a9.82,9.82,0,0,1,1,2.08l.11.35c0,.11.06.21.08.32a1.55,1.55,0,0,1,.08.36,2.29,2.29,0,0,1,.07.36l0,.31a3.86,3.86,0,0,1,.06.49C45.84,9.37,45.85,9.67,45.85,10Z"/></g></g></svg>